<svg xmlns="http://www.w3.org/2000/svg" xmlns:xlink="http://www.w3.org/1999/xlink" width="1024" zoomAndPan="magnify" viewBox="0 0 768 767.999994" height="1024" preserveAspectRatio="xMidYMid meet" version="1.0"><defs><clipPath id="528a1c9674"><path d="M 336.34375 303.523438 L 452 303.523438 L 452 419 L 336.34375 419 Z M 336.34375 303.523438 " clip-rule="nonzero"/></clipPath></defs><g clip-path="url(#528a1c9674)"><path fill="#000000" d="M 383.457031 303.730469 C 357.324219 304.015625 336.367188 325.4375 336.65625 351.574219 C 336.941406 377.703125 358.363281 398.65625 384.496094 398.371094 C 394.148438 398.265625 403.535156 395.207031 411.402344 389.613281 L 438.429688 416.636719 C 441.527344 419.691406 446.515625 419.65625 449.570312 416.558594 C 452.59375 413.496094 452.59375 408.566406 449.570312 405.496094 L 422.542969 378.472656 C 437.691406 357.179688 432.703125 327.632812 411.402344 312.484375 C 403.246094 306.6875 393.460938 303.621094 383.457031 303.730469 Z M 382.886719 311.921875 C 404.46875 311.316406 422.453125 328.320312 423.054688 349.90625 C 423.066406 350.285156 423.074219 350.664062 423.074219 351.042969 C 423.082031 372.632812 405.585938 390.144531 383.996094 390.15625 C 362.40625 390.164062 344.894531 372.671875 344.886719 351.082031 C 344.886719 351.070312 344.886719 351.058594 344.886719 351.046875 C 344.863281 329.863281 361.710938 312.511719 382.886719 311.921875 Z M 382.886719 311.921875 " fill-opacity="1" fill-rule="nonzero"/></g><path fill="#000000" d="M 373.425781 322.054688 C 375.566406 321.289062 377.917969 322.398438 378.6875 324.539062 C 379.449219 326.664062 378.359375 329.007812 376.238281 329.789062 C 367.300781 333.042969 361.351562 341.539062 361.351562 351.046875 C 361.351562 353.324219 359.511719 355.164062 357.238281 355.164062 C 354.964844 355.164062 353.121094 353.324219 353.121094 351.046875 C 353.125 338.078125 361.234375 326.488281 373.425781 322.054688 Z M 373.425781 322.054688 " fill-opacity="1" fill-rule="nonzero"/></svg>